<svg width="100" height="100" viewBox="0 0 100 100" fill="none" xmlns="http://www.w3.org/2000/svg">
<path d="M93.75 14.55L89.75 15.7219L18.1625 37.5H6.25V62.5H18.1656L24.3156 64.3562L24.2219 64.6469V64.7469C22.2156 71.3469 25.9313 78.6844 32.8156 80.7594C32.8469 80.7687 32.8844 80.75 32.9094 80.7594C39.5438 82.775 46.8875 79.1031 48.9281 72.1656L49.0219 71.8719L89.75 84.2781L93.75 85.4469V14.55ZM87.5 22.95V77.05L19.625 56.3437L19.2406 56.25H12.5V43.75H19.2375L19.6281 43.6562L87.5 22.9469V22.95ZM30.2719 66.2094L43.0656 70.0219L42.9719 70.3125V70.4062C41.8969 74.0625 38.0156 75.85 34.6719 74.8031C31.0156 73.7312 29.1344 69.9469 30.1781 66.6V66.5062L30.2719 66.2094V66.2094Z" fill="black"/>
</svg>
