<svg width="189" height="41" viewBox="0 0 189 41" fill="none" xmlns="http://www.w3.org/2000/svg">
<g clip-path="url(#clip0)">
<path d="M66.7678 23.9026L65.6484 27.0583H65.5551C65.3685 26.3467 65.0265 25.2639 64.4668 23.9645L58.4656 8.95961H52.5887V32.8746H56.4755V18.1172C56.4755 17.1891 56.4755 16.1372 56.4444 14.8378C56.4133 14.1881 56.3511 13.6931 56.32 13.3219H56.4133C56.5999 14.25 56.8175 14.9306 56.973 15.3638L64.187 32.8127H66.9233L74.075 15.2091C74.2305 14.8069 74.386 14.0025 74.5414 13.3219H74.6347C74.5414 15.0853 74.4793 16.6631 74.4482 17.6222V32.7818H78.5837V8.89774H72.9245L66.7678 23.9026V23.9026ZM82.5016 15.6422H86.5439V32.7818H82.5016V15.6422ZM84.5539 8.40273C83.8698 8.40273 83.3101 8.65023 82.8437 9.08336C82.3773 9.51649 82.1285 10.0734 82.1285 10.754C82.1285 11.4037 82.3773 11.9606 82.8437 12.3937C83.3101 12.8268 83.8698 13.0434 84.5539 13.0434C85.238 13.0434 85.8288 12.7959 86.2641 12.3937C86.7305 11.9606 86.9793 11.4037 86.9793 10.754C86.9793 10.1043 86.7305 9.54743 86.2641 9.08336C85.8599 8.65023 85.2691 8.40273 84.5539 8.40273V8.40273ZM100.879 15.4875C100.132 15.3328 99.3549 15.24 98.6086 15.24C96.7741 15.24 95.0949 15.6422 93.6957 16.4466C92.2964 17.251 91.177 18.3647 90.4619 19.7569C89.7156 21.1801 89.3425 22.8198 89.3425 24.707C89.3425 26.3467 89.7156 27.8008 90.4308 29.1311C91.1459 30.4305 92.141 31.4824 93.478 32.194C94.7529 32.9055 96.2454 33.2768 97.9246 33.2768C99.8524 33.2768 101.5 32.8746 102.806 32.1321L102.837 32.1012V28.3886L102.682 28.5124C102.091 28.9455 101.407 29.3167 100.723 29.5333C100.008 29.7808 99.3549 29.9046 98.7952 29.9046C97.1783 29.9046 95.9034 29.4405 95.0017 28.4195C94.0688 27.4295 93.6024 26.0683 93.6024 24.3667C93.6024 22.6032 94.0688 21.211 95.0328 20.1901C95.9967 19.1691 97.2716 18.6432 98.8263 18.6432C100.132 18.6432 101.469 19.0763 102.682 19.9426L102.837 20.0663V16.1372L102.806 16.1063C102.278 15.8897 101.687 15.6422 100.879 15.4875V15.4875ZM114.218 15.3638C113.223 15.3638 112.29 15.6731 111.482 16.3228C110.798 16.8797 110.331 17.6841 109.927 18.6432H109.896V15.6422H105.854V32.7818H109.896V24.0264C109.896 22.5413 110.207 21.3038 110.891 20.4066C111.575 19.4785 112.446 19.0144 113.503 19.0144C113.876 19.0144 114.249 19.1072 114.716 19.1691C115.151 19.2929 115.462 19.4166 115.68 19.5713L115.835 19.6951V15.6731L115.742 15.6422C115.462 15.4566 114.902 15.3638 114.218 15.3638V15.3638ZM125.226 15.2709C122.396 15.2709 120.126 16.1063 118.54 17.746C116.923 19.3857 116.146 21.6441 116.146 24.4904C116.146 27.1511 116.954 29.3167 118.509 30.8946C120.064 32.4415 122.178 33.2459 124.821 33.2459C127.589 33.2459 129.796 32.4105 131.382 30.7399C132.999 29.0692 133.777 26.8417 133.777 24.0882C133.777 21.3657 133.03 19.2001 131.507 17.6222C130.045 16.0444 127.9 15.2709 125.226 15.2709V15.2709ZM128.459 28.4505C127.713 29.4096 126.532 29.8736 125.07 29.8736C123.609 29.8736 122.427 29.4096 121.588 28.3886C120.748 27.4295 120.344 26.0373 120.344 24.2739C120.344 22.4485 120.779 21.0563 121.588 20.0663C122.427 19.0763 123.578 18.5813 125.039 18.5813C126.469 18.5813 127.589 19.0454 128.397 20.0044C129.206 20.9635 129.641 22.3557 129.641 24.1811C129.579 26.0373 129.237 27.4914 128.459 28.4505V28.4505ZM142.794 22.7579C141.519 22.232 140.711 21.8298 140.338 21.4895C140.027 21.1801 139.871 20.7469 139.871 20.1901C139.871 19.726 140.058 19.2619 140.524 18.9525C140.991 18.6432 141.519 18.4885 142.296 18.4885C142.981 18.4885 143.696 18.6122 144.38 18.7979C145.064 18.9835 145.686 19.2619 146.183 19.6332L146.339 19.7569V15.9825L146.246 15.9516C145.779 15.7659 145.157 15.5803 144.411 15.4256C143.665 15.3019 142.981 15.24 142.421 15.24C140.493 15.24 138.907 15.7041 137.663 16.725C136.42 17.6841 135.829 18.9835 135.829 20.4994C135.829 21.3038 135.953 22.0154 136.233 22.6032C136.513 23.191 136.917 23.7479 137.477 24.212C138.037 24.6451 138.845 25.1401 139.964 25.6042C140.897 26.0064 141.612 26.3158 142.048 26.5633C142.483 26.8108 142.763 27.0892 142.981 27.3058C143.136 27.5533 143.229 27.8627 143.229 28.2649C143.229 29.4096 142.359 29.9664 140.586 29.9664C139.902 29.9664 139.187 29.8427 138.347 29.5642C137.508 29.2858 136.731 28.8836 136.078 28.4195L135.922 28.2958V32.2249L136.015 32.2558C136.606 32.5343 137.321 32.7199 138.192 32.9365C139.063 33.0912 139.84 33.2149 140.524 33.2149C142.607 33.2149 144.318 32.7508 145.53 31.7299C146.774 30.7399 147.427 29.4714 147.427 27.8317C147.427 26.687 147.116 25.6661 146.432 24.8926C145.53 24.1501 144.411 23.3767 142.794 22.7579V22.7579ZM158.093 15.2709C155.263 15.2709 152.993 16.1063 151.407 17.746C149.821 19.3857 149.013 21.6441 149.013 24.4904C149.013 27.1511 149.821 29.3167 151.376 30.8946C152.931 32.4415 155.045 33.2459 157.688 33.2459C160.456 33.2459 162.663 32.4105 164.249 30.7399C165.866 29.0692 166.644 26.8417 166.644 24.0882C166.644 21.3657 165.897 19.2001 164.374 17.6222C162.912 16.0444 160.767 15.2709 158.093 15.2709V15.2709ZM161.295 28.4505C160.549 29.4096 159.367 29.8736 157.906 29.8736C156.413 29.8736 155.263 29.4096 154.423 28.3886C153.584 27.4295 153.18 26.0373 153.18 24.2739C153.18 22.4485 153.615 21.0563 154.423 20.0663C155.263 19.0763 156.413 18.5813 157.875 18.5813C159.274 18.5813 160.425 19.0454 161.233 20.0044C162.042 20.9635 162.477 22.3557 162.477 24.1811C162.477 26.0373 162.073 27.4914 161.295 28.4505V28.4505ZM188.254 18.9525V15.6422H184.181V10.5684L184.057 10.5993L180.201 11.744L180.107 11.775V15.6422H174.013V13.4765C174.013 12.4865 174.262 11.7131 174.697 11.2181C175.132 10.7231 175.785 10.4756 176.594 10.4756C177.154 10.4756 177.744 10.5993 178.397 10.8778L178.553 10.9706V7.47459L178.459 7.44366C177.9 7.25803 177.153 7.13428 176.19 7.13428C174.977 7.13428 173.92 7.41272 172.956 7.87679C171.992 8.40273 171.277 9.1143 170.748 10.0734C170.219 11.0015 169.94 12.0534 169.94 13.26V15.6422H167.11V18.9216H169.94V32.7818H174.013V18.9525H180.107V27.7698C180.107 31.3896 181.818 33.2149 185.238 33.2149C185.798 33.2149 186.389 33.1221 186.948 33.0293C187.539 32.9055 187.974 32.7508 188.223 32.6271L188.254 32.5962V29.2858L188.099 29.4096C187.85 29.5642 187.632 29.688 187.259 29.7808C186.948 29.8736 186.668 29.9046 186.451 29.9046C185.642 29.9046 185.083 29.7189 184.678 29.2549C184.305 28.8217 184.119 28.1102 184.119 27.0583V18.9525H188.254V18.9525Z" fill="#737373"/>
<path d="M0.474243 0.916016H19.5352V19.8809H0.474243V0.916016Z" fill="#F25022"/>
<path d="M21.5252 0.916016H40.5862V19.8809H21.5252V0.916016Z" fill="#7FBA00"/>
<path d="M0.474243 21.8608H19.5352V40.8258H0.474243V21.8608Z" fill="#00A4EF"/>
<path d="M21.5252 21.8608H40.5862V40.8258H21.5252V21.8608Z" fill="#FFB900"/>
</g>
<defs>
<clipPath id="clip0">
<rect x="0.474243" y="0.916016" width="187.811" height="39.9099" fill="white"/>
</clipPath>
</defs>
</svg>
