<svg width="48" height="46" viewBox="0 0 48 46" fill="none" xmlns="http://www.w3.org/2000/svg">
<circle cx="22.6875" cy="22.6875" r="22.6875" fill="white"/>
<path d="M38.6875 20.5254C38.6875 29.1345 31.655 36.1133 22.9783 36.1133C20.2239 36.1133 17.6361 35.4093 15.3847 34.1738L6.6875 36.9375L9.52306 28.5741C8.09266 26.2253 7.26883 23.4705 7.26883 20.5254C7.26883 11.9163 14.3021 4.9375 22.9783 4.9375C31.6557 4.9375 38.6875 11.9163 38.6875 20.5254ZM22.9783 7.41999C15.6951 7.41999 9.77088 13.2991 9.77088 20.5254C9.77088 23.393 10.7056 26.0486 12.2868 28.209L10.6367 33.0762L15.7122 31.463C17.7975 32.8323 20.2957 33.6308 22.9787 33.6308C30.2608 33.6308 36.1862 27.7524 36.1862 20.5261C36.1862 13.2998 30.2612 7.41999 22.9783 7.41999ZM30.9111 24.1155C30.8141 23.9565 30.5577 23.8605 30.173 23.6696C29.7876 23.4787 27.8939 22.5539 27.5419 22.4269C27.1888 22.2996 26.9314 22.2356 26.6751 22.6179C26.4187 23.0004 25.6806 23.8605 25.4555 24.1155C25.2308 24.3711 25.0064 24.4031 24.621 24.2118C24.2363 24.0209 22.9958 23.617 21.5248 22.3156C20.3803 21.303 19.6073 20.0529 19.3826 19.6699C19.1583 19.2877 19.3591 19.0811 19.5515 18.8909C19.725 18.7195 19.9369 18.4447 20.1293 18.2218C20.3223 17.9985 20.3863 17.8395 20.514 17.5843C20.6431 17.3293 20.5787 17.1064 20.482 16.9147C20.386 16.7238 19.6151 14.8436 19.2944 14.0785C18.9737 13.314 18.6534 13.4413 18.4283 13.4413C18.2039 13.4413 17.9469 13.4093 17.6902 13.4093C17.4335 13.4093 17.016 13.505 16.663 13.8872C16.3103 14.2698 15.3158 15.1942 15.3158 17.074C15.3158 18.9542 16.695 20.7707 16.888 21.0253C17.0804 21.2799 19.5511 25.2635 23.4658 26.7935C27.3808 28.3227 27.3808 27.8125 28.087 27.7485C28.7924 27.6849 30.3647 26.8244 30.6868 25.9327C31.0068 25.0395 31.0068 24.2747 30.9111 24.1155Z" fill="#4FCE5D"/>
</svg>
