<svg width="100" height="134" viewBox="0 0 100 134" fill="none" xmlns="http://www.w3.org/2000/svg">
<g clip-path="url(#clip0)">
<path d="M87.5163 49.935L100 63.329L82.4447 68.7906L86.606 86.606L70.091 82.8348L83.355 125.098C83.355 127.958 82.1413 130.212 79.7139 131.86L72.9519 125.098L64.8895 133.16C62.9822 132.726 61.4218 131.751 60.2081 130.234C58.9944 128.717 58.3875 127.005 58.3875 125.098L49.935 98.3095L41.6125 125.098C41.6125 127.005 41.0056 128.717 39.7919 130.234C38.5782 131.751 37.0178 132.726 35.1105 133.16L27.0481 125.098L20.2861 131.86C17.8587 130.212 16.645 127.958 16.645 125.098L29.909 82.8348L13.394 86.606L17.5553 68.7906L0 63.329L12.4837 49.935L0 36.541L17.5553 31.2094L13.394 13.394L31.2094 17.5553L36.541 0L49.935 12.4837L63.329 0L68.7906 17.5553L86.606 13.394L82.4447 31.2094L100 36.541L87.5163 49.935ZM50 24.9675C43.1079 24.9675 37.2128 27.4166 32.3147 32.3147C27.4166 37.2128 24.9675 43.1079 24.9675 50C24.9675 56.8921 27.4166 62.7872 32.3147 67.6853C37.2128 72.5834 43.1079 75.0325 50 75.0325C56.8921 75.0325 62.7872 72.5834 67.6853 67.6853C72.5834 62.7872 75.0325 56.8921 75.0325 50C75.0325 43.1079 72.5834 37.2128 67.6853 32.3147C62.7872 27.4166 56.8921 24.9675 50 24.9675Z" fill="#3BB0F3" fill-opacity="0.13"/>
</g>
<defs>
<clipPath id="clip0">
<rect width="100" height="133.16" fill="white"/>
</clipPath>
</defs>
</svg>
