<svg width="100" height="100" viewBox="0 0 100 100" fill="none" xmlns="http://www.w3.org/2000/svg">
<path d="M65.8312 64.5843C69.6655 62.4531 69.1687 54.2406 64.7249 46.2281C62.8187 42.7781 60.4749 39.9843 58.1312 38.0312C55.3286 40.1111 51.9337 41.2391 48.4437 41.2499C44.9483 41.2422 41.5475 40.1141 38.7406 38.0312C36.3968 39.9843 34.0593 42.7812 32.1468 46.2281C27.6999 54.2375 27.2093 62.4531 31.0531 64.5843C32.7656 65.5593 34.5718 64.8281 36.4343 63.0343C36.0856 64.9669 35.911 66.9268 35.9124 68.8906C35.9124 78.0718 39.4749 85.4906 43.8593 85.4906C46.503 85.4906 47.8124 82.7875 48.4406 78.6531C49.0656 82.7593 50.3781 85.4906 53.0031 85.4906C57.3687 85.4906 60.9593 78.0687 60.9593 68.8906C60.9593 66.8281 60.7655 64.8593 60.4343 63.0375C62.3093 64.8343 64.1093 65.5781 65.828 64.5906L65.8312 64.5843ZM48.4374 38.1249C50.2104 38.1514 51.971 37.825 53.6167 37.1647C55.2624 36.5043 56.7603 35.5233 58.0232 34.2786C59.2862 33.0339 60.289 31.5505 60.9733 29.9146C61.6575 28.2787 62.0096 26.5231 62.009 24.7499C62.0083 22.9767 61.6551 21.2213 60.9696 19.5859C60.2842 17.9505 59.2804 16.4677 58.0166 15.224C56.7527 13.9802 55.2541 13.0002 53.608 12.341C51.9619 11.6818 50.201 11.3566 48.428 11.3843C44.9174 11.4392 41.5693 12.8726 39.1065 15.3751C36.6437 17.8775 35.264 21.2482 35.2652 24.7593C35.2665 28.2703 36.6485 31.64 39.1131 34.1407C41.5776 36.6414 44.9268 38.0725 48.4374 38.1249V38.1249ZM75.2937 46.6062C78.1493 46.5227 80.86 45.3297 82.8504 43.2803C84.8408 41.2309 85.9541 38.4865 85.9541 35.6296C85.9541 32.7728 84.8408 30.0284 82.8504 27.979C80.86 25.9296 78.1493 24.7365 75.2937 24.6531C72.3817 24.6535 69.5891 25.8107 67.5303 27.8701C65.4715 29.9294 64.3151 32.7223 64.3155 35.6343C64.316 38.5463 65.4731 41.3389 67.5325 43.3977C69.5919 45.4565 72.3848 46.6129 75.2968 46.6125L75.2937 46.6062ZM88.6687 53.2625C87.0999 50.425 85.1812 48.1312 83.2562 46.5281C80.9535 48.2342 78.1657 49.1594 75.2999 49.1687C72.9374 49.1687 70.7374 48.5218 68.8124 47.4499C70.3624 50.8656 71.3218 54.325 71.4999 57.4187C71.7937 62.1562 70.3124 65.6687 67.3499 67.3093C66.715 67.6582 66.0247 67.895 65.3093 68.0093C65.1312 69.2343 65.0093 70.5093 65.0093 71.8531C65.0093 79.3937 67.9312 85.4843 71.5343 85.4843C73.703 85.4843 74.7843 83.2656 75.2968 79.8718C75.8062 83.2468 76.8843 85.4843 79.0468 85.4843C82.6249 85.4843 85.578 79.3906 85.578 71.8593C85.578 70.1625 85.4124 68.5468 85.1405 67.0468C86.678 68.5249 88.1593 69.1343 89.5718 68.3218C92.7187 66.5718 92.3124 59.8281 88.6655 53.2593L88.6687 53.2625ZM21.5812 46.6062C23.7516 46.605 25.8728 45.9602 27.6769 44.7535C29.4809 43.5468 30.8866 41.8324 31.7163 39.8268C32.546 37.8213 32.7625 35.6148 32.3383 33.4863C31.9141 31.3577 30.8683 29.4028 29.3332 27.8685C27.7981 26.3342 25.8425 25.2896 23.7137 24.8666C21.585 24.4437 19.3786 24.6614 17.3735 25.4922C15.3685 26.3231 13.6548 27.7298 12.4491 29.5345C11.2434 31.3392 10.5999 33.4608 10.5999 35.6312C10.6008 38.5434 11.758 41.336 13.8172 43.3952C15.8764 45.4544 18.669 46.6116 21.5812 46.6125V46.6062ZM29.503 67.2999C24.528 64.5343 24.0718 56.2874 28.078 47.4437C26.0978 48.5679 23.8614 49.1631 21.5843 49.1718C18.5968 49.1718 15.8593 48.1718 13.6155 46.5281C11.6937 48.1281 9.77805 50.4218 8.20305 53.2562C4.55617 59.8312 4.15617 66.5749 7.30617 68.3187C8.71242 69.1249 10.1968 68.5218 11.7249 67.0499C11.4442 68.6366 11.3031 70.2449 11.303 71.8562C11.303 79.3937 14.2249 85.4812 17.828 85.4812C19.9968 85.4812 21.078 83.2624 21.5905 79.8718C22.1062 83.2468 23.1843 85.4843 25.3405 85.4843C28.9249 85.4843 31.8718 79.3906 31.8718 71.8593C31.8718 70.5062 31.7468 69.2281 31.5687 68.0031C30.8454 67.8891 30.1475 67.6501 29.5062 67.2968L29.503 67.2999Z" fill="#3BB0F3" fill-opacity="0.13"/>
</svg>
