<svg width="303" height="426" viewBox="0 0 303 426" fill="none" xmlns="http://www.w3.org/2000/svg">
<path fill-rule="evenodd" clip-rule="evenodd" d="M155.935 75.2443C162.411 79.1475 168.774 81.0333 171.76 80.2635C179.25 78.333 179.938 50.9351 174.143 40.1339C168.349 29.3328 138.558 24.625 137.057 46.0255C136.536 53.4529 139.654 60.0814 144.262 65.4901L136 104H160L155.935 75.2443Z" fill="#B28B67"/>
<path fill-rule="evenodd" clip-rule="evenodd" d="M142.418 70.3075C139.406 56.9065 130.825 47.7714 132.135 41.7817C133.446 35.792 139.121 34.3321 139.121 34.3321C139.121 34.3321 142.057 22.4572 158.056 24.2304C174.055 26.0036 183.819 32.6478 179.602 47.2679C175.726 47.2679 171.046 45.866 164.576 48.2679C161.496 49.411 160.17 55.358 160.17 55.358H157.246C157.246 55.358 152.989 48.3006 148.851 50.1712C144.713 52.0418 146.97 59.2586 146.97 59.2586L145.529 70.3075H142.418Z" fill="#191847"/>
<path fill-rule="evenodd" clip-rule="evenodd" d="M92.6226 229H169.877L180 353H65L92.6226 229Z" fill="#C5CFD6"/>
<path fill-rule="evenodd" clip-rule="evenodd" d="M92.6226 229H116.383L130.604 353H65L92.6226 229Z" fill="black" fill-opacity="0.1"/>
<path fill-rule="evenodd" clip-rule="evenodd" d="M212.323 253.566C203.642 271.978 190.077 316.672 190.077 316.672L201.593 321.934C201.593 321.934 230.814 274.952 248.672 242.836C247.84 250.066 246.993 258.206 246.208 266.763C244.347 287.033 246.207 330.827 247.208 343.477C247.837 351.428 258.64 349.762 259.648 343.457C259.819 342.389 260.515 338.639 261.554 333.045C266.647 305.613 279.976 233.818 280 216.238C280.009 209.165 266.19 202.81 257.953 207.756C252.295 201.719 241.588 198.24 235.436 208.212C231.525 214.552 222.233 232.55 212.323 253.566Z" fill="#B28B67"/>
<path fill-rule="evenodd" clip-rule="evenodd" d="M190.9 300.125L230.427 206.487C239.897 191.255 266.446 209.587 263.217 218.422C255.886 238.479 218.6 303.414 216.415 309.39L190.9 300.125Z" fill="#1F28CF"/>
<path fill-rule="evenodd" clip-rule="evenodd" d="M191.664 311.185C190.971 310.241 189.63 310.017 188.734 310.771C187.099 312.146 184.748 314.264 183.899 315.734C182.547 318.076 180.733 323.021 180.733 323.021C183.45 324.59 229.578 351.222 229.578 351.222C229.578 351.222 235.116 346.027 231.304 343.157C227.491 340.286 225.012 338.315 225.012 338.315L208.152 315.087C207.821 314.631 207.179 314.538 206.733 314.882L203.23 317.579C203.23 317.579 198.409 317.159 196.035 315.788C194.59 314.953 192.824 312.767 191.664 311.185Z" fill="#E4E4E4"/>
<path fill-rule="evenodd" clip-rule="evenodd" d="M247.45 337.284C246.378 336.813 245.104 337.29 244.705 338.391C243.977 340.398 243 343.409 243 345.106C243 347.811 243.901 353 243.901 353C247.039 353 300.303 353 300.303 353C300.303 353 302.502 345.732 297.765 345.152C293.028 344.573 289.895 344.106 289.895 344.106L263.68 332.419C263.165 332.189 262.563 332.43 262.348 332.951L260.663 337.039C260.663 337.039 256.278 339.085 253.537 339.085C251.868 339.085 249.246 338.074 247.45 337.284Z" fill="#E4E4E4"/>
<path fill-rule="evenodd" clip-rule="evenodd" d="M282.77 223.433C282.77 250 270.154 311.97 270.146 317.82L243 317.841C243 317.841 248.96 234.898 247.227 234.004C245.493 233.111 176.176 240.925 155.386 240.925C125.408 240.925 113.006 222.02 112 187H171.386C183.478 188.294 246.549 201.015 269.972 205.388C280 207.261 282.77 216.115 282.77 223.433Z" fill="#2B44FF"/>
<path fill-rule="evenodd" clip-rule="evenodd" d="M251.36 72.9624L213.456 84.3408L223.134 100.463L252.605 83.1185C266.362 82.2993 272.862 80.9424 272.105 79.048C271.466 77.4507 269.947 77.1786 268.548 76.9279C267.458 76.7326 266.441 76.5503 265.969 75.7648C264.892 73.9709 268.667 69.3013 272.438 65.023C276.21 60.7448 273.192 60.5455 271.369 60.8886C265.101 63.4334 258.431 67.458 251.36 72.9624ZM242.005 174.592L210.107 151.168L203.055 168.599L234.643 181.698C243.577 192.192 248.572 196.566 249.629 194.822C250.521 193.351 249.824 191.974 249.182 190.705C248.682 189.717 248.215 188.795 248.559 187.946C249.344 186.006 255.345 186.21 261.031 186.648C266.717 187.085 265.06 184.555 263.689 183.305C257.885 179.831 250.657 176.926 242.005 174.592Z" fill="#B28B67"/>
<path fill-rule="evenodd" clip-rule="evenodd" d="M160.561 88.0868C177.931 120.476 203.05 145.305 239.466 171.116L225.677 186.663C185.018 171.553 163.559 162.436 153.021 131.835C150.376 124.154 148.528 99.6709 146.942 86.7888L160.561 88.0868Z" fill="#2026A2"/>
<path fill-rule="evenodd" clip-rule="evenodd" d="M112 196H189C189 196 162.837 116.208 162.27 86.4716C162.251 85.4609 160.384 83.68 159.559 83.9132C150.5 86.4716 140.172 82 140.172 82C121.917 111.358 115.605 147.505 112 196Z" fill="#F2F2F2"/>
<path fill-rule="evenodd" clip-rule="evenodd" d="M159.486 126.791C171.512 178.377 170.958 220.606 144.407 220.606H103.351C96.8304 176.784 113.968 116.024 129.856 85.3766C130.463 84.2063 131.754 82 134.797 82H146.727C146.732 82.0158 146.737 82.0316 146.743 82.0474C150.332 82.0768 154.286 82.208 158.567 82.3502C180.608 83.0819 211.341 84.1021 245.923 73L250 93.3735C218.787 113.448 187.181 128.999 159.486 126.791Z" fill="#1F28CF"/>
</svg>
